<svg width="36" height="35" viewBox="0 0 36 35" fill="none" xmlns="http://www.w3.org/2000/svg">
<path d="M14.1 14.65C15.3645 12.441 16.1033 9.97053 16.2594 7.43002C16.4155 4.88951 15.9846 2.34717 15 0L7.6 4.28L11.6 11.28C11.7755 11.584 11.8679 11.9289 11.8679 12.28C11.8679 12.6311 11.7755 12.976 11.6 13.28C11.4272 13.5794 11.1798 13.8289 10.8818 14.0041C10.5839 14.1794 10.2456 14.2744 9.9 14.28H0V22.97C2.87036 22.9269 5.68002 22.1371 8.15237 20.6782C10.6247 19.2193 12.6745 17.1418 14.1 14.65Z" fill="#020203"/>
<path d="M17.5798 23.3086C17.9271 23.3124 18.2674 23.4067 18.5673 23.582C18.8671 23.7574 19.1161 24.0078 19.2898 24.3086L25.2198 34.5786L32.6598 30.2786C31.3692 27.3566 29.2572 24.8727 26.5809 23.129C23.9045 21.3853 20.779 20.457 17.5848 20.457C14.3905 20.457 11.265 21.3853 8.58867 23.129C5.9123 24.8727 3.80036 27.3566 2.50977 30.2786L9.99977 34.5586L15.9298 24.2886C16.0962 23.9962 16.3358 23.7521 16.6251 23.5803C16.9144 23.4085 17.2434 23.3148 17.5798 23.3086Z" fill="#020203"/>
<path d="M21.0695 14.65C22.5046 17.1242 24.5576 19.1834 27.0275 20.6261C29.4973 22.0687 32.2994 22.8454 35.1595 22.88V14.19H25.2495C24.9084 14.1798 24.5756 14.0826 24.2827 13.9075C23.9898 13.7323 23.7465 13.4852 23.5761 13.1895C23.4057 12.8938 23.3139 12.5594 23.3092 12.2182C23.3045 11.877 23.3873 11.5402 23.5495 11.24L27.5495 4.24L20.1495 0C19.1627 2.34748 18.7322 4.89141 18.8918 7.43287C19.0514 9.97433 19.7968 12.4444 21.0695 14.65Z" fill="#020203"/>
</svg>
