<svg width="35" height="35" viewBox="0 0 35 35" fill="none" xmlns="http://www.w3.org/2000/svg">
<g clip-path="url(#clip0_14315_8990)">
<path d="M27.2141 2.92969L2.92969 27.2141C4.2223 29.133 5.88064 30.7782 7.80981 32.0555L32.0555 7.80981C30.7782 5.88064 29.133 4.2223 27.2141 2.92969Z" fill="#E459B5"/>
<path d="M17.5065 5.23649e-06C12.8635 5.23649e-06 8.41062 1.84443 5.12753 5.12753C1.84443 8.41062 5.23649e-06 12.8635 5.23649e-06 17.5065C-0.000670561 18.3708 0.0640661 19.234 0.193661 20.0885L20.0885 0.193661C19.234 0.0640661 18.3708 -0.000670561 17.5065 5.23649e-06Z" fill="#E459B5"/>
<path d="M34.8582 14.9375L14.9375 34.8582C15.7919 34.9891 16.6552 35.0539 17.5196 35.0518C19.8206 35.0519 22.099 34.5976 24.2241 33.7151C26.3491 32.8325 28.2791 31.5392 29.9031 29.9091C31.5272 28.279 32.8135 26.3443 33.6881 24.216C34.5628 22.0877 35.0087 19.8077 35.0002 17.5067C35.0187 16.6479 34.9712 15.789 34.8582 14.9375Z" fill="#E459B5"/>
</g>
<defs>
<clipPath id="clip0_14315_8990">
<rect width="35" height="35" fill="white"/>
</clipPath>
</defs>
</svg>
