<svg width="24" height="25" viewBox="0 0 24 25" fill="none" xmlns="http://www.w3.org/2000/svg">
<path d="M18 19.3597H17.24C16.44 19.3597 15.68 19.6697 15.12 20.2297L13.41 21.9198C12.63 22.6898 11.36 22.6898 10.58 21.9198L8.87 20.2297C8.31 19.6697 7.54 19.3597 6.75 19.3597H6C4.34 19.3597 3 18.0298 3 16.3898V5.47974C3 3.83974 4.34 2.50977 6 2.50977H18C19.66 2.50977 21 3.83974 21 5.47974V16.3898C21 18.0198 19.66 19.3597 18 19.3597Z" stroke="white" stroke-width="1.5" stroke-miterlimit="10" stroke-linecap="round" stroke-linejoin="round"/>
<path d="M7 9.65979C7 8.72979 7.76 7.96973 8.69 7.96973C9.62 7.96973 10.38 8.72979 10.38 9.65979C10.38 11.5398 7.71 11.7398 7.12 13.5298C7 13.8998 7.31 14.2698 7.7 14.2698H10.38" stroke="white" stroke-width="1.5" stroke-linecap="round" stroke-linejoin="round"/>
<path d="M16.0398 14.2599V8.54991C16.0398 8.28991 15.8698 8.05985 15.6198 7.98985C15.3698 7.91985 15.0998 8.01985 14.9598 8.23985C14.2398 9.39985 13.4598 10.7199 12.7798 11.8799C12.6698 12.0699 12.6698 12.3199 12.7798 12.5099C12.8898 12.6999 13.0998 12.8198 13.3298 12.8198H16.9998" stroke="white" stroke-width="1.5" stroke-linecap="round" stroke-linejoin="round"/>
</svg>
