<svg width="35" height="34" viewBox="0 0 35 34" fill="none" xmlns="http://www.w3.org/2000/svg">
<g clip-path="url(#clip0_14315_8959)">
<path d="M0 9.23209V18.4949C0 20.9199 3.78271 20.9298 3.78271 18.4949V9.23209C3.78271 8.73127 3.58344 8.25096 3.22874 7.89683C2.87405 7.5427 2.39297 7.34375 1.89135 7.34375C1.38974 7.34375 0.908662 7.5427 0.553965 7.89683C0.199267 8.25096 7.47469e-09 8.73127 0 9.23209Z" fill="#FC5795"/>
<path d="M31.2266 9.23581V18.4986C31.2612 18.9745 31.475 19.4196 31.8249 19.7445C32.1749 20.0694 32.6351 20.25 33.1129 20.25C33.5908 20.25 34.051 20.0694 34.4009 19.7445C34.7509 19.4196 34.9647 18.9745 34.9993 18.4986V9.23581C34.9647 8.75994 34.7509 8.31481 34.4009 7.9899C34.051 7.66499 33.5908 7.48437 33.1129 7.48438C32.6351 7.48437 32.1749 7.66499 31.8249 7.9899C31.475 8.31481 31.2612 8.75994 31.2266 9.23581Z" fill="#FC5795"/>
<path d="M7.80469 1.82974V25.6824C7.80469 26.1832 8.00395 26.6635 8.35865 27.0177C8.71335 27.3718 9.19442 27.5708 9.69604 27.5708C10.1977 27.5708 10.6787 27.3718 11.0334 27.0177C11.3881 26.6635 11.5874 26.1832 11.5874 25.6824V1.82974C11.5874 1.32893 11.3881 0.848619 11.0334 0.494487C10.6787 0.140355 10.1977 -0.0585937 9.69604 -0.0585938C9.19442 -0.0585937 8.71335 0.140355 8.35865 0.494487C8.00395 0.848619 7.80469 1.32893 7.80469 1.82974Z" fill="#FC5795"/>
<path d="M23.4121 1.82974V25.6824C23.4121 26.1832 23.6114 26.6635 23.9661 27.0177C24.3208 27.3718 24.8018 27.5708 25.3035 27.5708C25.8051 27.5708 26.2862 27.3718 26.6409 27.0177C26.9955 26.6635 27.1948 26.1832 27.1948 25.6824V1.82974C27.1948 1.32893 26.9955 0.848619 26.6409 0.494487C26.2862 0.140355 25.8051 -0.0585937 25.3035 -0.0585938C24.8018 -0.0585937 24.3208 0.140355 23.9661 0.494487C23.6114 0.848619 23.4121 1.32893 23.4121 1.82974Z" fill="#FC5795"/>
<path d="M15.6094 8.35765V32.2103C15.6094 34.6353 19.3921 34.6453 19.3921 32.2103V8.35765C19.3921 5.93263 15.6094 5.92269 15.6094 8.35765Z" fill="#FC5795"/>
</g>
<defs>
<clipPath id="clip0_14315_8959">
<rect width="35" height="34" fill="white"/>
</clipPath>
</defs>
</svg>
