<svg width="37" height="36" viewBox="0 0 37 36" fill="none" xmlns="http://www.w3.org/2000/svg">
<path d="M36.1592 17.58C36.1665 21.3303 34.9675 24.9835 32.7392 28H18.5692C19.9627 28.0432 21.3508 27.806 22.6509 27.3026C23.951 26.7991 25.1368 26.0396 26.1378 25.0692C27.1388 24.0987 27.9347 22.9371 28.4782 21.6531C29.0217 20.3692 29.3018 18.9892 29.3018 17.595C29.3018 16.2008 29.0217 14.8208 28.4782 13.5369C27.9347 12.2529 27.1388 11.0913 26.1378 10.1208C25.1368 9.15037 23.951 8.39087 22.6509 7.88741C21.3508 7.38396 19.9627 7.14679 18.5692 7.19V0C23.2326 -7.53604e-07 27.7052 1.85185 31.0037 5.14846C34.3021 8.44506 36.1565 12.9166 36.1592 17.58ZM8.15919 17.58C8.16184 14.8208 9.25978 12.1756 11.2117 10.2255C13.1637 8.27539 15.81 7.18 18.5692 7.18H4.40919C2.48206 9.79867 1.31888 12.9005 1.04897 16.1406C0.779059 19.3807 1.41299 22.6322 2.88028 25.5336C4.34758 28.4351 6.59075 30.8728 9.36045 32.5757C12.1301 34.2787 15.3178 35.1802 18.5692 35.18V28C15.8108 27.9921 13.1682 26.8907 11.2205 24.9375C9.27288 22.9842 8.17918 20.3384 8.17919 17.58H8.15919Z" fill="#FC4545"/>
</svg>
