<svg width="29" height="32" viewBox="0 0 29 32" fill="none" xmlns="http://www.w3.org/2000/svg">
<path d="M13.1877 32H0V29.6616C0.455029 25.8933 2.30615 22.4205 5.20118 19.904C8.09621 17.3875 11.8331 16.0029 15.701 16.0136C11.8274 16.0233 8.08582 14.6337 5.18994 12.1097C2.29405 9.58576 0.446586 6.10421 0 2.32926L0 0H13.1877C13.1877 0.163776 13.1877 0.327552 13.1877 0.482229C13.2 4.5887 14.8713 8.52288 17.8354 11.4223C20.7994 14.3218 24.8143 15.95 29 15.95C24.8151 15.9644 20.8065 17.6049 17.8517 20.5124C14.8969 23.4198 13.2365 27.3574 13.2341 31.4632C13.1784 31.6725 13.1784 31.8453 13.1877 32Z" fill="#4361EE"/>
</svg>
