<svg width="25" height="25" viewBox="0 0 25 25" fill="none" xmlns="http://www.w3.org/2000/svg">
<path d="M9.49953 13.5C8.83953 13.83 8.28953 14.32 7.87953 14.93C7.64953 15.28 7.64953 15.72 7.87953 16.07C8.28953 16.68 8.83953 17.17 9.49953 17.5" stroke="white" stroke-width="1.5" stroke-linecap="round" stroke-linejoin="round"/>
<path d="M15.71 13.5C16.37 13.83 16.92 14.32 17.33 14.93C17.56 15.28 17.56 15.72 17.33 16.07C16.92 16.68 16.37 17.17 15.71 17.5" stroke="white" stroke-width="1.5" stroke-linecap="round" stroke-linejoin="round"/>
<path d="M9.5 22.5H15.5C20.5 22.5 22.5 20.5 22.5 15.5V9.5C22.5 4.5 20.5 2.5 15.5 2.5H9.5C4.5 2.5 2.5 4.5 2.5 9.5V15.5C2.5 20.5 4.5 22.5 9.5 22.5Z" stroke="white" stroke-width="1.5" stroke-linecap="round" stroke-linejoin="round"/>
<path d="M2.73047 8.51L21.9505 8.5" stroke="white" stroke-width="1.5" stroke-linecap="round" stroke-linejoin="round"/>
</svg>
