<svg width="150" height="48" viewBox="0 0 150 48" fill="none" xmlns="http://www.w3.org/2000/svg">
<path d="M32.4952 4.66016C35.4556 10.4646 37.1251 17.0374 37.1251 24.0001C37.1251 30.9629 35.4556 37.5358 32.4951 43.3402C39.3484 39.6134 44.0001 32.35 44.0001 24.0002C44.0001 15.6504 39.3484 8.38703 32.4952 4.66016Z" fill="#464646"/>
<path d="M22.6024 4.1986C21.6073 2.78895 19.9122 2.02977 18.2121 2.3248C7.86686 4.12011 0 13.1413 0 23.9999C0 34.8585 7.86682 43.8797 18.212 45.675C19.9121 45.9701 21.6073 45.2109 22.6023 43.8013C26.5538 38.2035 28.875 31.3728 28.875 23.9999C28.875 16.627 26.5538 9.79629 22.6024 4.1986Z" fill="#464646"/>
<path d="M64.5838 34.2456C68.4478 34.2456 71.4718 32.8736 73.2638 30.5776V23.3816H65.8438L65.7038 27.0216L68.6718 26.8816V29.1776C67.5798 30.0456 66.2358 30.4656 64.9478 30.4656C61.7278 30.4656 59.6838 28.0296 59.6838 24.1376C59.6838 20.2456 61.5878 17.8096 64.6398 17.8096C66.6558 17.8096 68.0558 19.0136 68.2518 20.9456H73.2638C72.9278 16.6896 69.5958 14.0296 64.6398 14.0296C58.6758 14.0296 54.9238 17.9216 54.9238 24.1376C54.9238 30.3536 58.6478 34.2456 64.5838 34.2456Z" fill="#464646"/>
<path d="M85.537 33.9096H89.765V23.7456C89.765 20.0776 87.049 18.0056 82.793 18.0056C78.425 18.0056 75.625 20.0216 75.345 23.2976H79.601C79.741 21.9256 80.861 21.0856 82.597 21.0856C84.361 21.0856 85.397 21.9816 85.397 23.4656V24.5296H82.541C78.341 24.5296 75.793 26.3496 75.793 29.5696C75.793 32.3136 77.781 34.2456 80.805 34.2456C82.737 34.2456 84.389 33.7136 85.453 32.3696L85.537 33.9096ZM80.077 29.2896C80.077 28.0856 81.001 27.5816 82.457 27.5816L85.397 27.5536V28.7576C84.557 30.0456 83.409 30.8016 81.897 30.8016C80.665 30.8016 80.077 30.1296 80.077 29.2896Z" fill="#464646"/>
<path d="M92.9767 33.9096H97.3447V13.1896H92.9767V33.9096Z" fill="#464646"/>
<path d="M100.687 33.9096H105.055V18.3416H100.687V33.9096ZM100.519 16.2696H105.167V12.1816H100.519V16.2696Z" fill="#464646"/>
<path d="M108.399 33.9096H112.767V13.1896H108.399V33.9096Z" fill="#464646"/>
<path d="M123.473 34.2456C127.841 34.2456 130.809 32.0336 131.173 28.4776H126.805C126.525 29.7936 125.265 30.7456 123.473 30.7456C121.177 30.7456 119.917 29.0376 119.777 26.7976H131.229C131.649 21.3936 128.737 18.0056 123.697 18.0056C118.601 18.0056 115.381 21.1416 115.381 26.1256C115.381 31.1096 118.489 34.2456 123.473 34.2456ZM120.113 23.8016C120.645 22.2056 121.793 21.3936 123.669 21.3936C125.405 21.3936 126.665 22.3736 126.777 23.8016H120.113Z" fill="#464646"/>
<path d="M141.108 34.2456C146.092 34.2456 149.088 31.1936 149.088 26.1256C149.088 21.0576 146.092 18.0056 141.108 18.0056C136.124 18.0056 133.1 21.0576 133.1 26.1256C133.1 31.1936 136.124 34.2456 141.108 34.2456ZM137.468 26.1256C137.468 23.2416 138.84 21.5336 141.108 21.5336C143.348 21.5336 144.72 23.2416 144.72 26.1256C144.72 29.0096 143.348 30.7176 141.108 30.7176C138.84 30.7176 137.468 29.0096 137.468 26.1256Z" fill="#464646"/>
</svg>
