<svg width="197" height="48" viewBox="0 0 197 48" fill="none" xmlns="http://www.w3.org/2000/svg">
<path d="M30.4289 2H13.5711L0 15.5711V32.4289L13.5711 46H30.4289L44 32.4289V15.5711L30.4289 2ZM15.9036 32.641L7.20966 23.947L15.9036 15.253C19.1904 11.9663 24.5976 11.9663 27.8844 15.253L36.5783 23.947L27.8844 32.641C24.5976 35.9277 19.2964 35.9277 15.9036 32.641Z" fill="#464646"/>
<path d="M63.3395 34.2396C66.0395 34.2396 68.2595 32.8596 68.9495 30.7896V33.9996H72.9395V25.8996C72.9395 24.0696 71.4995 22.5096 69.5495 22.5096H63.8495V25.8996H67.8995C68.4095 25.8996 68.7395 26.2296 68.7395 26.7396C68.7395 28.6896 66.1595 30.5796 63.5495 30.5796C60.0695 30.5796 57.3095 27.8496 57.3095 23.4996C57.3095 19.1496 60.0695 16.6296 63.6395 16.6296C66.3395 16.6296 68.1995 18.0996 68.5295 20.3496H72.9995C72.7295 15.8496 68.9495 12.7596 63.6695 12.7596C58.1195 12.7596 53.0195 16.3296 53.0195 23.4996C53.0195 30.6696 57.9695 34.2396 63.3395 34.2396Z" fill="#464646"/>
<path d="M74.6523 33.9996H78.8223V12.3096H74.6523V33.9996Z" fill="#464646"/>
<path d="M87.8174 34.2396C92.4674 34.2396 95.7974 30.9396 95.7974 26.4396C95.7974 21.9396 92.4674 18.6396 87.8174 18.6396C83.1674 18.6396 79.8374 21.9396 79.8374 26.4396C79.8374 30.9396 83.1674 34.2396 87.8174 34.2396ZM87.8174 30.6396C85.5674 30.6396 84.0374 28.9296 84.0374 26.4396C84.0374 23.9196 85.5674 22.2096 87.8174 22.2096C90.0674 22.2096 91.5974 23.9196 91.5974 26.4396C91.5974 28.9296 90.0674 30.6396 87.8174 30.6396Z" fill="#464646"/>
<path d="M105.128 34.2396C109.598 34.2396 112.268 31.1496 112.268 26.4396C112.268 21.7296 109.598 18.6396 105.188 18.6396C103.298 18.6396 101.828 19.3596 100.988 20.4696V12.3096H96.8184V33.9996H100.988V32.3496C101.828 33.5196 103.388 34.2396 105.128 34.2396ZM104.468 30.6396C102.218 30.6396 100.748 28.9596 100.748 26.4396C100.748 23.8896 102.218 22.2096 104.468 22.2096C106.658 22.2096 108.158 23.8896 108.158 26.4396C108.158 28.9596 106.658 30.6396 104.468 30.6396Z" fill="#464646"/>
<path d="M119.249 18.6396C115.109 18.6396 112.649 21.0696 112.469 24.0996H116.189C116.249 22.8396 117.179 21.6996 119.009 21.6996C120.719 21.6996 121.709 22.5696 121.709 23.8296C121.709 24.4596 121.319 24.9396 120.569 24.9396H118.019C114.719 24.9396 112.499 26.7396 112.499 29.7096C112.499 32.2896 114.509 34.2396 117.449 34.2396C119.519 34.2396 121.199 33.3096 121.709 31.8996V33.9996H125.849V24.2796C125.849 20.8596 123.059 18.6396 119.249 18.6396ZM118.499 31.2096C117.329 31.2096 116.489 30.5196 116.489 29.5296C116.489 28.3596 117.389 27.5796 118.649 27.5796H121.709V27.7896C121.709 29.7096 120.539 31.2096 118.499 31.2096Z" fill="#464646"/>
<path d="M127.451 33.9996H131.621V12.3096H127.451V33.9996Z" fill="#464646"/>
<path d="M133.836 33.9996H142.416C146.856 33.9996 149.916 31.7196 149.916 27.7296C149.916 24.9696 148.296 23.2896 146.376 22.5396C147.606 21.8796 148.836 20.3796 148.836 18.3996C148.836 14.8896 145.986 12.9996 142.176 12.9996H133.836V33.9996ZM138.276 21.0096V16.5696H141.756C143.766 16.5696 144.666 17.3796 144.666 18.7896C144.666 20.1996 143.766 21.0096 141.846 21.0096H138.276ZM138.276 30.0996V24.8196H142.026C144.516 24.8196 145.626 25.7796 145.626 27.4896C145.626 29.1996 144.516 30.0996 142.026 30.0996H138.276Z" fill="#464646"/>
<path d="M157.171 18.6396C153.031 18.6396 150.571 21.0696 150.391 24.0996H154.111C154.171 22.8396 155.101 21.6996 156.931 21.6996C158.641 21.6996 159.631 22.5696 159.631 23.8296C159.631 24.4596 159.241 24.9396 158.491 24.9396H155.941C152.641 24.9396 150.421 26.7396 150.421 29.7096C150.421 32.2896 152.431 34.2396 155.371 34.2396C157.441 34.2396 159.121 33.3096 159.631 31.8996V33.9996H163.771V24.2796C163.771 20.8596 160.981 18.6396 157.171 18.6396ZM156.421 31.2096C155.251 31.2096 154.411 30.5196 154.411 29.5296C154.411 28.3596 155.311 27.5796 156.571 27.5796H159.631V27.7896C159.631 29.7096 158.461 31.2096 156.421 31.2096Z" fill="#464646"/>
<path d="M165.133 33.9996H169.333V25.7196C169.333 23.7696 170.623 22.3596 172.453 22.3596C174.193 22.3596 175.363 23.6796 175.363 25.5096V33.9996H179.563V24.5796C179.563 21.0996 177.343 18.6396 173.923 18.6396C171.853 18.6396 170.173 19.5096 169.333 20.9796V18.8796H165.133V33.9996Z" fill="#464646"/>
<path d="M191.533 33.9996H196.573L190.063 24.8196L196.093 18.8796H190.813L185.563 24.0396V12.3096H181.363V33.9996H185.563V29.2596L187.243 27.6096L191.533 33.9996Z" fill="#464646"/>
</svg>
