<svg width="24" height="25" viewBox="0 0 24 25" fill="none" xmlns="http://www.w3.org/2000/svg">
<path d="M7.48047 18.8505L10.5805 21.2505C10.9805 21.6505 11.8805 21.8505 12.4805 21.8505H16.2805C17.4805 21.8505 18.7805 20.9505 19.0805 19.7505L21.4805 12.4505C21.9805 11.0505 21.0805 9.85046 19.5805 9.85046H15.5805C14.9805 9.85046 14.4805 9.35046 14.5805 8.65046L15.0805 5.45046C15.2805 4.55046 14.6805 3.55046 13.7805 3.25046C12.9805 2.95046 11.9805 3.35046 11.5805 3.95046L7.48047 10.0505" stroke="white" stroke-width="1.5" stroke-miterlimit="10"/>
<path d="M2.38086 18.8504V9.05039C2.38086 7.65039 2.98086 7.15039 4.38086 7.15039H5.38086C6.78086 7.15039 7.38086 7.65039 7.38086 9.05039V18.8504C7.38086 20.2504 6.78086 20.7504 5.38086 20.7504H4.38086C2.98086 20.7504 2.38086 20.2504 2.38086 18.8504Z" stroke="white" stroke-width="1.5" stroke-linecap="round" stroke-linejoin="round"/>
</svg>
