<svg width="20" height="21" viewBox="0 0 20 21" fill="none" xmlns="http://www.w3.org/2000/svg">
<path fill-rule="evenodd" clip-rule="evenodd" d="M10.0003 17.1665C13.6822 17.1665 16.667 14.1818 16.667 10.4998C16.667 6.81794 13.6822 3.83317 10.0003 3.83317C6.31843 3.83317 3.33366 6.81794 3.33366 10.4998C3.33366 14.1818 6.31843 17.1665 10.0003 17.1665ZM10.0003 18.8332C14.6027 18.8332 18.3337 15.1022 18.3337 10.4998C18.3337 5.89746 14.6027 2.1665 10.0003 2.1665C5.39795 2.1665 1.66699 5.89746 1.66699 10.4998C1.66699 15.1022 5.39795 18.8332 10.0003 18.8332Z" fill="#5EA977"/>
<path d="M10.0003 8.8335C10.0003 8.37326 10.3734 8.00016 10.8337 8.00016H11.667C12.1272 8.00016 12.5003 7.62707 12.5003 7.16683C12.5003 6.7066 12.1272 6.3335 11.667 6.3335H10.8337C9.45291 6.3335 8.33366 7.45279 8.33366 8.8335V10.5002H7.50033C7.04009 10.5002 6.66699 10.8732 6.66699 11.3335C6.66699 11.7937 7.04008 12.1668 7.50033 12.1668H8.33366V17.1668C8.33366 17.6271 8.70674 18.0002 9.16699 18.0002C9.62724 18.0002 10.0003 17.6271 10.0003 17.1668V12.1668H11.667C12.1272 12.1668 12.5003 11.7937 12.5003 11.3335C12.5003 10.8732 12.1272 10.5002 11.667 10.5002H10.0003V8.8335Z" fill="#5EA977"/>
</svg>
