<svg width="20" height="21" viewBox="0 0 20 21" fill="none" xmlns="http://www.w3.org/2000/svg">
<path fill-rule="evenodd" clip-rule="evenodd" d="M13.3337 3.83317H6.66699C4.82604 3.83317 3.33366 5.32555 3.33366 7.1665V13.8332C3.33366 15.6741 4.82604 17.1665 6.66699 17.1665H13.3337C15.1746 17.1665 16.667 15.6741 16.667 13.8332V7.1665C16.667 5.32555 15.1746 3.83317 13.3337 3.83317ZM6.66699 2.1665C3.90557 2.1665 1.66699 4.40508 1.66699 7.1665V13.8332C1.66699 16.5946 3.90557 18.8332 6.66699 18.8332H13.3337C16.0951 18.8332 18.3337 16.5946 18.3337 13.8332V7.1665C18.3337 4.40508 16.0951 2.1665 13.3337 2.1665H6.66699Z" fill="#5EA977"/>
<path d="M14.1663 7.16667C14.6266 7.16667 14.9997 6.79357 14.9997 6.33333C14.9997 5.8731 14.6266 5.5 14.1663 5.5C13.7061 5.5 13.333 5.8731 13.333 6.33333C13.333 6.79357 13.7061 7.16667 14.1663 7.16667Z" fill="#5EA977"/>
<path fill-rule="evenodd" clip-rule="evenodd" d="M14.1663 10.5002C14.1663 12.8013 12.3008 14.6668 9.99967 14.6668C7.69849 14.6668 5.83301 12.8013 5.83301 10.5002C5.83301 8.19898 7.69849 6.3335 9.99967 6.3335C12.3008 6.3335 14.1663 8.19898 14.1663 10.5002ZM12.4997 10.5002C12.4997 11.8809 11.3804 13.0002 9.99967 13.0002C8.61892 13.0002 7.49967 11.8809 7.49967 10.5002C7.49967 9.11941 8.61892 8.00016 9.99967 8.00016C11.3804 8.00016 12.4997 9.11941 12.4997 10.5002Z" fill="#5EA977"/>
</svg>
