<svg width="40" height="40" viewBox="0 0 40 40" fill="none" xmlns="http://www.w3.org/2000/svg">
<path d="M29.5411 2.41797C32.2324 7.69474 33.7501 13.67 33.7501 19.9998C33.7501 26.3296 32.2324 32.3049 29.541 37.5817C35.7713 34.1936 40.0001 27.5906 40.0001 19.9998C40.0001 12.4091 35.7713 5.80603 29.5411 2.41797Z" fill="#464646"/>
<path d="M20.5477 1.99859C19.643 0.71709 18.102 0.0269267 16.5565 0.295137C7.15169 1.92724 0 10.1283 0 19.9998C0 29.8712 7.15165 38.0723 16.5564 39.7044C18.1019 39.9727 19.643 39.2825 20.5476 38.001C24.1398 32.9122 26.25 26.7024 26.25 19.9997C26.25 13.2971 24.1399 7.0874 20.5477 1.99859Z" fill="#464646"/>
</svg>
