<svg width="178" height="43" viewBox="0 0 178 43" fill="none" xmlns="http://www.w3.org/2000/svg">
<path d="M171.648 42V16.3431H176.509V42H171.648ZM174.079 11.2117C173.179 11.2117 172.44 10.9236 171.864 10.3474C171.288 9.73528 171 8.97908 171 8.07884C171 7.2146 171.288 6.49441 171.864 5.91825C172.44 5.30608 173.179 5 174.079 5C174.979 5 175.717 5.30608 176.293 5.91825C176.87 6.49441 177.158 7.2146 177.158 8.07884C177.158 8.97908 176.87 9.73528 176.293 10.3474C175.717 10.9236 174.979 11.2117 174.079 11.2117Z" fill="#2A2A2A"/>
<path d="M153.186 42C150.91 42 148.844 41.4397 146.988 40.3192C145.132 39.1636 143.661 37.6054 142.576 35.6444C141.525 33.6835 141 31.4774 141 29.0263C141 26.5751 141.525 24.369 142.576 22.4081C143.661 20.4471 145.114 18.8889 146.935 17.7333C148.791 16.5778 150.875 16 153.186 16C155.077 16 156.758 16.4027 158.228 17.2081C159.734 17.9785 160.942 19.064 161.853 20.4646C162.763 21.8303 163.271 23.4236 163.376 25.2444V32.7556C163.271 34.5414 162.763 36.1347 161.853 37.5354C160.977 38.936 159.787 40.0391 158.281 40.8444C156.81 41.6148 155.112 42 153.186 42ZM153.974 37.5354C156.32 37.5354 158.211 36.7475 159.646 35.1717C161.082 33.5609 161.8 31.5125 161.8 29.0263C161.8 27.3104 161.467 25.8222 160.802 24.5616C160.172 23.266 159.261 22.268 158.071 21.5677C156.88 20.8323 155.497 20.4646 153.921 20.4646C152.345 20.4646 150.945 20.8323 149.719 21.5677C148.529 22.303 147.583 23.3185 146.883 24.6141C146.218 25.8747 145.885 27.3279 145.885 28.9737C145.885 30.6545 146.218 32.1428 146.883 33.4384C147.583 34.699 148.546 35.697 149.772 36.4323C150.997 37.1677 152.398 37.5354 153.974 37.5354ZM161.485 41.4747V34.7515L162.378 28.6586L161.485 22.6182V16.5253H166.265V41.4747H161.485Z" fill="#2A2A2A"/>
<path d="M131.824 42V26.4818C131.824 24.465 131.189 22.803 129.919 21.4958C128.649 20.1886 127.006 19.535 124.989 19.535C123.644 19.535 122.449 19.8338 121.403 20.4314C120.358 21.0289 119.536 21.8506 118.938 22.8964C118.341 23.9421 118.042 25.1373 118.042 26.4818L115.969 25.3053C115.969 23.2885 116.417 21.4958 117.314 19.9272C118.21 18.3585 119.461 17.126 121.067 16.2297C122.673 15.296 124.485 14.8291 126.501 14.8291C128.518 14.8291 130.292 15.2773 131.824 16.1737C133.392 17.07 134.625 18.3212 135.521 19.9272C136.417 21.5331 136.866 23.3819 136.866 25.4734V42H131.824ZM113 42V2H118.042V42H113Z" fill="#2A2A2A"/>
<path d="M99.0263 42C96.5751 42 94.3515 41.4222 92.3556 40.2667C90.3946 39.1111 88.8364 37.5529 87.6808 35.5919C86.5603 33.596 86 31.3899 86 28.9737C86 26.5226 86.5603 24.3165 87.6808 22.3556C88.8364 20.3946 90.3946 18.8539 92.3556 17.7333C94.3515 16.5778 96.5751 16 99.0263 16C100.952 16 102.738 16.3677 104.384 17.103C106.03 17.8034 107.448 18.8364 108.638 20.202L105.487 23.3535C104.716 22.4431 103.771 21.7603 102.651 21.3051C101.565 20.8148 100.357 20.5697 99.0263 20.5697C97.4505 20.5697 96.0498 20.9374 94.8242 21.6727C93.5987 22.3731 92.6357 23.3535 91.9354 24.6141C91.235 25.8747 90.8848 27.3279 90.8848 28.9737C90.8848 30.6195 91.235 32.0727 91.9354 33.3333C92.6357 34.5939 93.5987 35.5919 94.8242 36.3273C96.0498 37.0626 97.4505 37.4303 99.0263 37.4303C100.357 37.4303 101.565 37.2027 102.651 36.7475C103.771 36.2572 104.734 35.5569 105.539 34.6465L108.638 37.798C107.483 39.1286 106.065 40.1616 104.384 40.897C102.738 41.6323 100.952 42 99.0263 42Z" fill="#2A2A2A"/>
<path d="M71.1838 42C68.6976 42 66.4566 41.4397 64.4606 40.3192C62.4646 39.1636 60.8889 37.6054 59.7333 35.6444C58.5778 33.6835 58 31.4599 58 28.9737C58 26.5226 58.5603 24.3165 59.6808 22.3556C60.8364 20.3946 62.3771 18.8539 64.303 17.7333C66.264 16.5778 68.4525 16 70.8687 16C73.1798 16 75.2108 16.5253 76.9616 17.5758C78.7475 18.6263 80.1306 20.0795 81.1111 21.9354C82.1266 23.7912 82.6343 25.8923 82.6343 28.2384C82.6343 28.5886 82.6168 28.9737 82.5818 29.3939C82.5468 29.7791 82.4768 30.2343 82.3717 30.7596H61.3091V26.8202H79.8505L78.1172 28.3434C78.1172 26.6626 77.8195 25.2444 77.2242 24.0889C76.629 22.8983 75.7886 21.9879 74.703 21.3576C73.6175 20.6923 72.3044 20.3596 70.7636 20.3596C69.1529 20.3596 67.7347 20.7098 66.5091 21.4101C65.2835 22.1104 64.338 23.0909 63.6727 24.3515C63.0074 25.6121 62.6747 27.1003 62.6747 28.8162C62.6747 30.567 63.0249 32.1077 63.7253 33.4384C64.4256 34.734 65.4236 35.7495 66.7192 36.4848C68.0148 37.1852 69.503 37.5354 71.1838 37.5354C72.5845 37.5354 73.8626 37.2902 75.0182 36.8C76.2088 36.3098 77.2242 35.5744 78.0646 34.5939L81.1111 37.6929C79.9205 39.0936 78.4498 40.1616 76.699 40.897C74.9832 41.6323 73.1448 42 71.1838 42Z" fill="#2A2A2A"/>
<path fill-rule="evenodd" clip-rule="evenodd" d="M10.125 4C10.7463 4 11.25 4.50835 11.25 5.13544V11.8645C11.25 12.4916 10.7463 12.9999 10.125 12.9999C9.5037 12.9999 9.00002 12.4916 9.00002 11.8645V5.13544C9.00002 4.50835 9.5037 4 10.125 4Z" fill="#2A2A2A" stroke="#2A2A2A" stroke-linecap="round"/>
<path fill-rule="evenodd" clip-rule="evenodd" d="M25.8753 4C26.4966 4 27.0002 4.50835 27.0002 5.13544V11.8645C27.0002 12.4916 26.4966 12.9999 25.8753 12.9999C25.2539 12.9999 24.7503 12.4916 24.7503 11.8645V5.13544C24.7503 4.50835 25.2539 4 25.8753 4Z" fill="#2A2A2A" stroke="#2A2A2A" stroke-linecap="round"/>
<path fill-rule="evenodd" clip-rule="evenodd" d="M18.3753 1C18.9966 1 19.5002 1.50835 19.5002 2.13544V8.86448C19.5002 9.49157 18.9966 9.99992 18.3753 9.99992C17.7539 9.99992 17.2503 9.49157 17.2503 8.86448V2.13544C17.2503 1.50835 17.7539 1 18.3753 1Z" fill="#2A2A2A" stroke="#2A2A2A" stroke-linecap="round"/>
<path fill-rule="evenodd" clip-rule="evenodd" d="M2.24755 19.0103V26.7243C2.24755 34.4645 8.48637 40.7392 16.1823 40.7392H19.8173C27.5133 40.7392 33.7521 34.4645 33.7521 26.7243V19.0103H2.24755ZM0.674264 16.7499C0.301878 16.7499 0 17.0535 0 17.428V26.7243C0 35.7129 7.24508 42.9996 16.1823 42.9996H19.8173C28.7546 42.9996 35.9997 35.7129 35.9997 26.7243V17.428C35.9997 17.0535 35.6978 16.7499 35.3254 16.7499H0.674264Z" fill="#2A2A2A"/>
<mask id="path-10-inside-1_2001_559" fill="white">
<path fill-rule="evenodd" clip-rule="evenodd" d="M38.9063 21.2958H36.0939V27.8113C37.717 27.3616 38.9063 25.8997 38.9063 24.1656V21.2958ZM36.0939 30.1624C39.0217 29.6718 41.2501 27.1736 41.2501 24.1656V19.6886C41.2501 19.3083 40.9353 18.9999 40.5469 18.9999H33.7501V30.2498H35.0392C35.3987 30.2498 35.7511 30.2199 36.0939 30.1624Z"/>
</mask>
<path fill-rule="evenodd" clip-rule="evenodd" d="M38.9063 21.2958H36.0939V27.8113C37.717 27.3616 38.9063 25.8997 38.9063 24.1656V21.2958ZM36.0939 30.1624C39.0217 29.6718 41.2501 27.1736 41.2501 24.1656V19.6886C41.2501 19.3083 40.9353 18.9999 40.5469 18.9999H33.7501V30.2498H35.0392C35.3987 30.2498 35.7511 30.2199 36.0939 30.1624Z" fill="#2A2A2A"/>
<path d="M36.0939 21.2958V11.2958H26.0939V21.2958H36.0939ZM38.9063 21.2958H48.9063V11.2958H38.9063V21.2958ZM36.0939 27.8113H26.0939V40.9586L38.7639 37.4482L36.0939 27.8113ZM36.0939 30.1624L37.7465 40.0249L37.7465 40.0249L36.0939 30.1624ZM33.7501 18.9999V8.99988H23.7501V18.9999H33.7501ZM33.7501 30.2498H23.7501V40.2498H33.7501V30.2498ZM36.0939 31.2958H38.9063V11.2958H36.0939V31.2958ZM46.0939 27.8113V21.2958H26.0939V27.8113H46.0939ZM28.9063 24.1656C28.9063 21.167 30.9494 18.8599 33.4238 18.1743L38.7639 37.4482C44.4846 35.8632 48.9063 30.6323 48.9063 24.1656H28.9063ZM28.9063 21.2958V24.1656H48.9063V21.2958H28.9063ZM31.2501 24.1656C31.2501 22.0597 32.7804 20.5782 34.4412 20.2999L37.7465 40.0249C45.263 38.7654 51.2501 32.2875 51.2501 24.1656H31.2501ZM31.2501 19.6886V24.1656H51.2501V19.6886H31.2501ZM40.5469 28.9999C35.6078 28.9999 31.2501 25.0245 31.2501 19.6886H51.2501C51.2501 13.592 46.2627 8.99988 40.5469 8.99988V28.9999ZM35.0392 20.2498H33.7501V40.2498H35.0392V20.2498ZM34.4412 20.2999C34.6426 20.2662 34.8429 20.2498 35.0392 20.2498V40.2498C35.9544 40.2498 36.8596 40.1735 37.7465 40.0249L34.4412 20.2999ZM33.7501 28.9999H40.5469V8.99988H33.7501V28.9999ZM43.7501 30.2498V18.9999H23.7501V30.2498H43.7501Z" fill="#2A2A2A" mask="url(#path-10-inside-1_2001_559)"/>
<path d="M5.97803 26.883V22.6045H30.1638V26.883C30.1638 32.4132 25.5928 37.0229 19.7968 37.0229H16.345C10.549 37.0229 5.97803 32.4132 5.97803 26.883Z" fill="#2A2A2A" stroke="#2A2A2A" stroke-width="10"/>
</svg>
