<svg width="40" height="40" viewBox="0 0 40 40" fill="none" xmlns="http://www.w3.org/2000/svg">
<path d="M33.0065 8.33003C32.6136 7.9371 32.2206 7.54417 31.8277 7.15124C30.6489 5.89388 29.3916 4.63651 27.8199 3.85066C26.0124 2.90763 24.0478 3.14338 22.0831 3.14338C19.0969 3.14338 11.6313 3.14338 7.23047 3.14338L10.2167 7.15124C15.6391 7.15124 24.1263 7.15124 28.0556 7.15124C29.7059 7.15124 31.1205 7.46559 32.4564 8.33003C32.6922 8.40861 32.9279 8.40861 33.0065 8.33003Z" fill="#464646"/>
<path d="M36.3074 14.7744C35.9145 14.3814 35.5215 13.9885 35.1286 13.5956C33.9498 12.3382 32.6925 11.0808 31.1207 10.295C29.3133 9.35196 27.3486 9.58772 25.384 9.58772C22.7907 9.58772 16.5824 9.58772 12.1816 9.58772L15.1679 13.5956C20.5117 13.5956 27.8202 13.5956 31.4351 13.5956C33.0854 13.5956 34.4999 13.9099 35.8359 14.7744C35.993 14.8529 36.1502 14.8529 36.3074 14.7744Z" fill="#464646"/>
<path d="M40.0001 21.0605C39.6072 20.6676 39.2143 20.2746 38.8214 19.8817C37.6426 18.6243 36.3852 17.367 34.8135 16.5811C33.006 15.6381 31.0414 15.8739 29.0768 15.8739C26.6406 15.8739 21.2968 15.8739 16.9746 15.8739L19.9608 19.8817C25.1475 19.8817 31.7487 19.8817 35.0493 19.8817C36.6996 19.8817 38.1141 20.1961 39.45 21.0605C39.6858 21.1391 39.843 21.2177 40.0001 21.0605Z" fill="#464646"/>
<path d="M6.91602 31.6703C7.30894 32.0632 7.70187 32.4561 8.0948 32.849C9.27358 34.1064 10.5309 35.3638 12.1026 36.1496C13.9101 37.0927 15.8748 36.8569 17.8394 36.8569H32.6921L29.7058 32.849C24.2834 32.849 15.7962 32.849 11.8669 32.849C10.2166 32.849 8.80206 32.5347 7.46611 31.6703C7.23036 31.5917 7.07319 31.5917 6.91602 31.6703Z" fill="#464646"/>
<path d="M3.61523 25.2259C4.00816 25.6189 4.40109 26.0118 4.79402 26.4047C5.9728 27.6621 7.23016 28.9195 8.80187 29.7053C10.6093 30.6483 12.574 30.4126 14.5386 30.4126H27.741L24.7547 26.4047C19.4109 26.4047 12.1025 26.4047 8.48753 26.4047C6.83724 26.4047 5.42269 26.0904 4.08674 25.2259C3.92957 25.1473 3.77241 25.1473 3.61523 25.2259Z" fill="#464646"/>
<path d="M0 18.8607C0.392927 19.2536 0.785855 19.6466 1.17878 20.0395C2.35756 21.2968 3.61494 22.5542 5.18665 23.3401C6.99411 24.2831 8.95874 24.0473 10.9234 24.0473H23.0255L20.0393 20.0395C14.8527 20.0395 8.25148 20.0395 4.95089 20.0395C3.30059 20.0395 1.88605 19.7251 0.550096 18.8607C0.314339 18.7821 0.157171 18.7821 0 18.8607Z" fill="#464646"/>
</svg>
