<svg width="40" height="40" viewBox="0 0 40 40" fill="none" xmlns="http://www.w3.org/2000/svg">
<g clip-path="url(#clip0_10740_2577)">
<path d="M24.7911 1.92855L20.954 0.900391L17.7204 12.9683L14.8011 2.07331L10.9639 3.10146L14.1181 14.8727L6.26184 7.01647L3.45288 9.82543L12.0702 18.4428L1.3387 15.5673L0.310547 19.4044L12.036 22.5462C11.9018 21.9672 11.8308 21.3639 11.8308 20.744C11.8308 16.3561 15.3878 12.799 19.7757 12.799C24.1636 12.799 27.7207 16.3561 27.7207 20.744C27.7207 21.3599 27.6506 21.9595 27.518 22.5351L38.1743 25.3904L39.2024 21.5533L27.4303 18.399L38.1625 15.5233L37.1343 11.6862L25.3627 14.8404L33.2189 6.98421L30.4099 4.17525L21.9121 12.673L24.7911 1.92855Z" fill="#464646"/>
<path d="M27.5068 22.5798C27.1778 23.9706 26.4832 25.2201 25.5303 26.2211L33.2503 33.9412L36.0592 31.1323L27.5068 22.5798Z" fill="#464646"/>
<path d="M25.4523 26.3018C24.4879 27.2869 23.269 28.022 21.9022 28.4009L24.7114 38.8848L28.5484 37.8566L25.4523 26.3018Z" fill="#464646"/>
<path d="M21.7589 28.4392C21.1247 28.6023 20.46 28.6889 19.7751 28.6889C19.0412 28.6889 18.3306 28.5894 17.6559 28.4031L14.8442 38.8966L18.6813 39.9247L21.7589 28.4392Z" fill="#464646"/>
<path d="M17.5203 28.3645C16.1743 27.9668 14.9772 27.2223 14.0324 26.2344L6.29337 33.9734L9.10233 36.7824L17.5203 28.3645Z" fill="#464646"/>
<path d="M13.9686 26.166C13.04 25.1718 12.3636 23.9391 12.0417 22.5697L1.35059 25.4344L2.37873 29.2715L13.9686 26.166Z" fill="#464646"/>
</g>
<defs>
<clipPath id="clip0_10740_2577">
<rect width="40" height="40" fill="white"/>
</clipPath>
</defs>
</svg>
