<svg width="35" height="40" viewBox="0 0 35 40" fill="none" xmlns="http://www.w3.org/2000/svg">
<path fill-rule="evenodd" clip-rule="evenodd" d="M17.9686 1.31594C17.5095 1.22151 17.036 1.22151 16.5768 1.31594C16.0461 1.42509 15.5717 1.69078 15.1946 1.90201L15.0918 1.95943L2.31048 9.06018C2.27515 9.07982 2.23873 9.09987 2.20142 9.12042C1.80221 9.34031 1.30026 9.61678 0.91479 10.0351C0.581522 10.3967 0.329315 10.8253 0.175032 11.2923C-0.00341805 11.8324 -0.00133023 12.4055 0.000330143 12.8612C0.000485354 12.9038 0.000636746 12.9454 0.000636746 12.9858V27.0057C0.000636746 27.0462 0.000485354 27.0877 0.000330143 27.1303C-0.00133023 27.5861 -0.00341805 28.1591 0.175032 28.6992C0.329316 29.1662 0.581525 29.5948 0.91479 29.9565C1.30026 30.3748 1.80222 30.6512 2.20143 30.8711C2.23874 30.8917 2.27515 30.9117 2.31048 30.9314L15.0918 38.0321L15.1946 38.0895C15.5718 38.3008 16.0461 38.5664 16.5768 38.6756C17.036 38.77 17.5095 38.77 17.9686 38.6756C18.4994 38.5664 18.9737 38.3008 19.3508 38.0895L19.4536 38.0321L32.235 30.9314C32.2506 30.9227 32.2664 30.9139 32.2825 30.9051C32.3027 30.8939 32.3232 30.8826 32.344 30.8711C32.7432 30.6512 33.2452 30.3748 33.6307 29.9565C33.9639 29.5948 34.2161 29.1662 34.3704 28.6992C34.5489 28.1591 34.5468 27.5861 34.5451 27.1303C34.545 27.0877 34.5448 27.0462 34.5448 27.0057V12.9858C34.5448 12.9454 34.545 12.9038 34.5451 12.8612C34.5468 12.4055 34.5489 11.8324 34.3704 11.2923C34.2161 10.8253 33.9639 10.3967 33.6307 10.0351C33.2452 9.61677 32.7432 9.3403 32.344 9.12041L32.3426 9.11964C32.3058 9.09936 32.2699 9.07956 32.235 9.06018L19.4536 1.95943L19.3508 1.902C18.9737 1.69078 18.4994 1.42509 17.9686 1.31594ZM16.7694 4.97914C17.0312 4.83372 17.1648 4.76025 17.2645 4.71218L17.2727 4.70822L17.281 4.71218C17.3807 4.76025 17.5143 4.83372 17.776 4.97914L29.261 11.3597L17.2727 18.0199L5.28441 11.3597L16.7694 4.97914ZM3.45505 14.2951L15.5455 21.012L15.5455 34.3324L3.9881 27.9117C3.71182 27.7582 3.57077 27.679 3.47181 27.6159L3.46345 27.6106L3.46283 27.6007C3.45577 27.4835 3.45505 27.3218 3.45505 27.0057V14.2951Z" fill="#464646"/>
</svg>
