<svg xmlns="http://www.w3.org/2000/svg" width="814" height="306" viewBox="0 0 814 306" fill="none">
<rect width="814" height="306" fill="#fafafa"/>
<path d="M333.34 177.6C330.3 177.6 327.6 176.96 325.24 175.68C322.88 174.36 321 172.56 319.6 170.28C318.24 168 317.56 165.4 317.56 162.48C317.56 159.6 318.22 157.04 319.54 154.8C320.9 152.52 322.74 150.72 325.06 149.4C327.38 148.04 329.96 147.36 332.8 147.36C335.6 147.36 338.06 148 340.18 149.28C342.34 150.52 344.02 152.24 345.22 154.44C346.46 156.6 347.08 159.06 347.08 161.82C347.08 162.34 347.04 162.88 346.96 163.44C346.92 163.96 346.82 164.56 346.66 165.24L322.3 165.3V159.42L343 159.36L339.82 161.82C339.74 160.1 339.42 158.66 338.86 157.5C338.34 156.34 337.56 155.46 336.52 154.86C335.52 154.22 334.28 153.9 332.8 153.9C331.24 153.9 329.88 154.26 328.72 154.98C327.56 155.66 326.66 156.64 326.02 157.92C325.42 159.16 325.12 160.64 325.12 162.36C325.12 164.12 325.44 165.66 326.08 166.98C326.76 168.26 327.72 169.26 328.96 169.98C330.2 170.66 331.64 171 333.28 171C334.76 171 336.1 170.76 337.3 170.28C338.5 169.76 339.54 169 340.42 168L345.04 172.62C343.64 174.26 341.92 175.5 339.88 176.34C337.88 177.18 335.7 177.6 333.34 177.6ZM371.441 177V160.38C371.441 158.66 370.901 157.26 369.821 156.18C368.741 155.1 367.341 154.56 365.621 154.56C364.501 154.56 363.501 154.8 362.621 155.28C361.741 155.76 361.041 156.44 360.521 157.32C360.041 158.2 359.801 159.22 359.801 160.38L356.741 158.82C356.741 156.54 357.221 154.56 358.181 152.88C359.181 151.16 360.541 149.82 362.261 148.86C364.021 147.9 366.001 147.42 368.201 147.42C370.321 147.42 372.221 147.96 373.901 149.04C375.581 150.08 376.901 151.46 377.861 153.18C378.821 154.86 379.301 156.68 379.301 158.64V177H371.441ZM351.941 177V148.02H359.801V177H351.941ZM389.541 177V135.96H397.401V177H389.541ZM382.761 154.92V148.02H404.181V154.92H382.761ZM421.758 177.6C418.718 177.6 416.018 176.96 413.658 175.68C411.298 174.36 409.418 172.56 408.018 170.28C406.658 168 405.978 165.4 405.978 162.48C405.978 159.6 406.638 157.04 407.958 154.8C409.318 152.52 411.158 150.72 413.478 149.4C415.798 148.04 418.378 147.36 421.218 147.36C424.018 147.36 426.478 148 428.598 149.28C430.758 150.52 432.438 152.24 433.638 154.44C434.878 156.6 435.498 159.06 435.498 161.82C435.498 162.34 435.458 162.88 435.378 163.44C435.338 163.96 435.238 164.56 435.078 165.24L410.718 165.3V159.42L431.418 159.36L428.238 161.82C428.158 160.1 427.838 158.66 427.278 157.5C426.758 156.34 425.978 155.46 424.938 154.86C423.938 154.22 422.698 153.9 421.218 153.9C419.658 153.9 418.298 154.26 417.138 154.98C415.978 155.66 415.078 156.64 414.438 157.92C413.838 159.16 413.538 160.64 413.538 162.36C413.538 164.12 413.858 165.66 414.498 166.98C415.178 168.26 416.138 169.26 417.378 169.98C418.618 170.66 420.058 171 421.698 171C423.178 171 424.518 170.76 425.718 170.28C426.918 169.76 427.958 169 428.838 168L433.458 172.62C432.058 174.26 430.338 175.5 428.298 176.34C426.298 177.18 424.118 177.6 421.758 177.6ZM440.359 177V148.02H448.219V177H440.359ZM448.219 160.98L445.159 158.94C445.519 155.38 446.559 152.58 448.279 150.54C449.999 148.46 452.479 147.42 455.719 147.42C457.119 147.42 458.379 147.66 459.499 148.14C460.619 148.58 461.639 149.32 462.559 150.36L457.639 156C457.199 155.52 456.659 155.16 456.019 154.92C455.419 154.68 454.719 154.56 453.919 154.56C452.239 154.56 450.859 155.1 449.779 156.18C448.739 157.22 448.219 158.82 448.219 160.98ZM481.283 177.6C479.203 177.6 477.323 177.18 475.643 176.34C473.963 175.46 472.623 174.28 471.623 172.8C470.623 171.32 470.083 169.62 470.003 167.7V157.44C470.083 155.52 470.623 153.82 471.623 152.34C472.663 150.82 474.003 149.62 475.643 148.74C477.323 147.86 479.203 147.42 481.283 147.42C483.963 147.42 486.363 148.08 488.483 149.4C490.603 150.72 492.263 152.52 493.463 154.8C494.703 157.08 495.323 159.66 495.323 162.54C495.323 165.38 494.703 167.94 493.463 170.22C492.263 172.5 490.603 174.3 488.483 175.62C486.363 176.94 483.963 177.6 481.283 177.6ZM465.203 189.12V148.02H473.063V155.64L471.743 162.66L473.003 169.68V189.12H465.203ZM479.903 170.34C481.343 170.34 482.623 170.02 483.743 169.38C484.863 168.7 485.723 167.78 486.323 166.62C486.963 165.42 487.283 164.04 487.283 162.48C487.283 160.96 486.963 159.62 486.323 158.46C485.723 157.26 484.863 156.34 483.743 155.7C482.623 155.02 481.343 154.68 479.903 154.68C478.503 154.68 477.243 155.02 476.123 155.7C475.003 156.34 474.123 157.26 473.483 158.46C472.883 159.62 472.583 160.96 472.583 162.48C472.583 164.04 472.883 165.42 473.483 166.62C474.123 167.78 474.983 168.7 476.063 169.38C477.183 170.02 478.463 170.34 479.903 170.34ZM500.476 177V148.02H508.336V177H500.476ZM508.336 160.98L505.276 158.94C505.636 155.38 506.676 152.58 508.396 150.54C510.116 148.46 512.596 147.42 515.836 147.42C517.236 147.42 518.496 147.66 519.616 148.14C520.736 148.58 521.756 149.32 522.676 150.36L517.756 156C517.316 155.52 516.776 155.16 516.136 154.92C515.536 154.68 514.836 154.56 514.036 154.56C512.356 154.56 510.976 155.1 509.896 156.18C508.856 157.22 508.336 158.82 508.336 160.98ZM525.437 177V148.02H533.357V177H525.437ZM529.397 143.34C528.117 143.34 527.057 142.92 526.217 142.08C525.377 141.2 524.957 140.12 524.957 138.84C524.957 137.6 525.377 136.54 526.217 135.66C527.057 134.78 528.117 134.34 529.397 134.34C530.717 134.34 531.777 134.78 532.577 135.66C533.417 136.54 533.837 137.6 533.837 138.84C533.837 140.12 533.417 141.2 532.577 142.08C531.777 142.92 530.717 143.34 529.397 143.34ZM550.28 177.66C548.64 177.66 547.02 177.44 545.42 177C543.86 176.56 542.42 175.96 541.1 175.2C539.78 174.4 538.64 173.44 537.68 172.32L542.36 167.58C543.36 168.7 544.52 169.54 545.84 170.1C547.16 170.66 548.62 170.94 550.22 170.94C551.5 170.94 552.46 170.76 553.1 170.4C553.78 170.04 554.12 169.5 554.12 168.78C554.12 167.98 553.76 167.36 553.04 166.92C552.36 166.48 551.46 166.12 550.34 165.84C549.22 165.52 548.04 165.18 546.8 164.82C545.6 164.42 544.44 163.92 543.32 163.32C542.2 162.68 541.28 161.82 540.56 160.74C539.88 159.62 539.54 158.18 539.54 156.42C539.54 154.58 539.98 152.98 540.86 151.62C541.78 150.26 543.08 149.2 544.76 148.44C546.44 147.68 548.42 147.3 550.7 147.3C553.1 147.3 555.26 147.72 557.18 148.56C559.14 149.4 560.76 150.66 562.04 152.34L557.3 157.08C556.42 156 555.42 155.22 554.3 154.74C553.22 154.26 552.04 154.02 550.76 154.02C549.6 154.02 548.7 154.2 548.06 154.56C547.46 154.92 547.16 155.42 547.16 156.06C547.16 156.78 547.5 157.34 548.18 157.74C548.9 158.14 549.82 158.5 550.94 158.82C552.06 159.1 553.22 159.44 554.42 159.84C555.66 160.2 556.82 160.72 557.9 161.4C559.02 162.08 559.92 162.98 560.6 164.1C561.32 165.22 561.68 166.66 561.68 168.42C561.68 171.26 560.66 173.52 558.62 175.2C556.58 176.84 553.8 177.66 550.28 177.66ZM580.84 177.6C577.8 177.6 575.1 176.96 572.74 175.68C570.38 174.36 568.5 172.56 567.1 170.28C565.74 168 565.06 165.4 565.06 162.48C565.06 159.6 565.72 157.04 567.04 154.8C568.4 152.52 570.24 150.72 572.56 149.4C574.88 148.04 577.46 147.36 580.3 147.36C583.1 147.36 585.56 148 587.68 149.28C589.84 150.52 591.52 152.24 592.72 154.44C593.96 156.6 594.58 159.06 594.58 161.82C594.58 162.34 594.54 162.88 594.46 163.44C594.42 163.96 594.32 164.56 594.16 165.24L569.8 165.3V159.42L590.5 159.36L587.32 161.82C587.24 160.1 586.92 158.66 586.36 157.5C585.84 156.34 585.06 155.46 584.02 154.86C583.02 154.22 581.78 153.9 580.3 153.9C578.74 153.9 577.38 154.26 576.22 154.98C575.06 155.66 574.16 156.64 573.52 157.92C572.92 159.16 572.62 160.64 572.62 162.36C572.62 164.12 572.94 165.66 573.58 166.98C574.26 168.26 575.22 169.26 576.46 169.98C577.7 170.66 579.14 171 580.78 171C582.26 171 583.6 170.76 584.8 170.28C586 169.76 587.04 169 587.92 168L592.54 172.62C591.14 174.26 589.42 175.5 587.38 176.34C585.38 177.18 583.2 177.6 580.84 177.6ZM613.061 177.6C610.301 177.6 607.801 176.96 605.561 175.68C603.361 174.36 601.601 172.58 600.281 170.34C599.001 168.1 598.361 165.6 598.361 162.84C598.361 160.08 599.001 157.6 600.281 155.4C601.601 153.16 603.361 151.4 605.561 150.12C607.801 148.84 610.301 148.2 613.061 148.2C615.181 148.2 617.161 148.6 619.001 149.4C620.841 150.2 622.401 151.32 623.681 152.76L620.921 155.58C619.961 154.5 618.801 153.68 617.441 153.12C616.081 152.52 614.621 152.22 613.061 152.22C611.061 152.22 609.281 152.68 607.721 153.6C606.161 154.52 604.941 155.78 604.061 157.38C603.181 158.94 602.741 160.76 602.741 162.84C602.741 164.88 603.181 166.72 604.061 168.36C604.941 169.96 606.161 171.22 607.721 172.14C609.281 173.06 611.061 173.52 613.061 173.52C614.661 173.52 616.141 173.24 617.501 172.68C618.861 172.08 620.021 171.24 620.981 170.16L623.801 172.98C622.481 174.46 620.881 175.6 619.001 176.4C617.161 177.2 615.181 177.6 613.061 177.6ZM650.214 177V160.44C650.214 157.96 649.474 155.96 647.994 154.44C646.554 152.88 644.634 152.1 642.234 152.1C640.594 152.1 639.154 152.46 637.914 153.18C636.674 153.9 635.694 154.88 634.974 156.12C634.254 157.36 633.894 158.78 633.894 160.38L631.974 159.3C631.974 157.18 632.474 155.28 633.474 153.6C634.474 151.92 635.814 150.6 637.494 149.64C639.214 148.68 641.174 148.2 643.374 148.2C645.534 148.2 647.454 148.7 649.134 149.7C650.814 150.66 652.114 152 653.034 153.72C653.994 155.44 654.474 157.44 654.474 159.72V177H650.214ZM629.694 177V134.52H633.894V177H629.694ZM674.57 177.6C671.89 177.6 669.49 176.96 667.37 175.68C665.25 174.36 663.57 172.6 662.33 170.4C661.13 168.2 660.53 165.72 660.53 162.96C660.53 160.16 661.13 157.66 662.33 155.46C663.57 153.22 665.25 151.46 667.37 150.18C669.49 148.86 671.87 148.2 674.51 148.2C676.67 148.2 678.59 148.64 680.27 149.52C681.99 150.36 683.37 151.56 684.41 153.12C685.49 154.64 686.15 156.42 686.39 158.46V167.28C686.15 169.32 685.49 171.12 684.41 172.68C683.37 174.24 681.99 175.46 680.27 176.34C678.59 177.18 676.69 177.6 674.57 177.6ZM675.23 173.58C678.15 173.58 680.49 172.6 682.25 170.64C684.05 168.68 684.95 166.1 684.95 162.9C684.95 160.78 684.53 158.92 683.69 157.32C682.89 155.68 681.75 154.42 680.27 153.54C678.83 152.62 677.13 152.16 675.17 152.16C673.17 152.16 671.39 152.62 669.83 153.54C668.31 154.46 667.09 155.74 666.17 157.38C665.29 158.98 664.85 160.82 664.85 162.9C664.85 164.98 665.29 166.82 666.17 168.42C667.09 170.02 668.33 171.28 669.89 172.2C671.45 173.12 673.23 173.58 675.23 173.58ZM684.71 177V169.44L685.55 162.48L684.71 155.7V148.8H688.91V177H684.71ZM697.428 177V148.8H701.688V177H697.428ZM699.528 142.68C698.728 142.68 698.048 142.4 697.488 141.84C696.928 141.24 696.648 140.54 696.648 139.74C696.648 138.9 696.928 138.2 697.488 137.64C698.048 137.08 698.728 136.8 699.528 136.8C700.408 136.8 701.108 137.08 701.628 137.64C702.188 138.2 702.468 138.9 702.468 139.74C702.468 140.54 702.188 141.24 701.628 141.84C701.108 142.4 700.408 142.68 699.528 142.68Z" fill="#121212"/>
<path fill-rule="evenodd" clip-rule="evenodd" d="M116.317 136.673V169.682C116.317 202.804 142.18 229.654 174.083 229.654H189.152C221.055 229.654 246.918 202.804 246.918 169.682V136.673H116.317ZM109.795 127C108.251 127 107 128.299 107 129.902V169.682C107 208.146 137.034 239.327 174.083 239.327H189.152C226.201 239.327 256.235 208.146 256.235 169.682V129.902C256.235 128.299 254.983 127 253.44 127H109.795Z" fill="#121212"/>
<path d="M275.312 151.898V146.898H270.312H252.688H247.688V151.898V194.177V200.813L254.066 198.983C266.366 195.454 275.312 184.02 275.312 170.52V151.898ZM280 170.52C280 187.617 267.775 201.741 251.833 204.507C249.966 204.831 248.043 205 246.078 205H243V142H280V170.52Z" fill="#121212" stroke="#121212" stroke-width="10"/>
<path d="M116.054 170.704V136H247.769V170.704C247.769 203.803 221.408 230.491 189.067 230.491H174.757C142.416 230.491 116.054 203.803 116.054 170.704Z" fill="#121212" stroke="#121212" stroke-width="10"/>
<path d="M172.896 93.5668C172.901 93.2637 172.719 93.1089 172.431 93.0282C168.049 92.1706 167.943 92.2193 167.149 87.809C167.101 87.5051 166.92 87.3251 166.604 87.3197C166.288 87.3143 166.101 87.4881 166.043 87.7903C165.048 92.1449 164.945 92.0168 160.587 92.8273C160.296 92.8981 160.109 93.0466 160.104 93.3497C160.099 93.6529 160.281 93.8076 160.569 93.8883C164.897 94.8461 165.005 94.6963 165.851 99.1075C165.899 99.3862 166.08 99.5914 166.396 99.5968C166.712 99.6022 166.899 99.4032 166.957 99.1262C167.953 94.7464 168.004 94.7978 172.413 94.0892C172.704 94.0184 172.891 93.87 172.896 93.5668Z" fill="#121212" stroke="#121212" stroke-width="0.00141"/>
<path d="M200.696 94.9728C201.106 94.9728 201.311 94.7283 201.414 94.3442C202.473 88.5119 202.405 88.3723 208.351 87.2197C208.761 87.15 209 86.9055 209 86.4863C209 86.0673 208.761 85.8228 208.351 85.7529C202.439 84.5308 202.61 84.391 201.414 78.6287C201.311 78.2445 201.106 78 200.696 78C200.286 78 200.081 78.2445 199.978 78.6287C198.782 84.391 198.987 84.5308 193.041 85.7529C192.666 85.8228 192.392 86.0673 192.392 86.4863C192.392 86.9055 192.666 87.15 193.041 87.2197C198.987 88.4422 198.919 88.5119 199.978 94.3442C200.081 94.7283 200.286 94.9728 200.696 94.9728ZM184.157 119C184.806 119 185.25 118.581 185.318 117.952C186.549 108.628 186.856 108.628 196.288 106.777C196.903 106.672 197.347 106.253 197.347 105.589C197.347 104.961 196.903 104.507 196.288 104.402C186.856 103.075 186.514 102.761 185.318 93.2615C185.25 92.633 184.806 92.1789 184.157 92.1789C183.541 92.1789 183.097 92.633 183.029 93.2965C181.901 102.656 181.423 102.621 172.059 104.402C171.444 104.542 171 104.961 171 105.589C171 106.288 171.444 106.672 172.196 106.777C181.491 108.313 181.901 108.558 183.029 117.882C183.097 118.581 183.541 119 184.157 119Z" fill="#121212" stroke="#121212" stroke-width="0.00141"/>
<path d="M182 86C182.148 86 182.222 85.9136 182.259 85.7778C182.642 83.716 182.617 83.6667 184.765 83.2592C184.914 83.2346 185 83.1481 185 83C185 82.8519 184.914 82.7654 184.765 82.7407C182.63 82.3087 182.691 82.2593 182.259 80.2222C182.222 80.0864 182.148 80 182 80C181.852 80 181.778 80.0864 181.741 80.2222C181.309 82.2593 181.383 82.3087 179.235 82.7407C179.099 82.7654 179 82.8519 179 83C179 83.1481 179.099 83.2346 179.235 83.2592C181.383 83.6914 181.358 83.716 181.741 85.7778C181.778 85.9136 181.852 86 182 86Z" fill="#121212" stroke="#121212" stroke-width="0.00141"/>
<path d="M174 76C174.247 76 174.37 75.8559 174.432 75.6296C175.07 72.1934 175.029 72.1111 178.609 71.4321C178.856 71.391 179 71.2469 179 71C179 70.7531 178.856 70.609 178.609 70.5678C175.049 69.8478 175.152 69.7654 174.432 66.3704C174.37 66.1441 174.247 66 174 66C173.753 66 173.63 66.1441 173.568 66.3704C172.848 69.7654 172.971 69.8478 169.391 70.5678C169.165 70.609 169 70.7531 169 71C169 71.2469 169.165 71.391 169.391 71.4321C172.971 72.1523 172.93 72.1934 173.568 75.6296C173.63 75.8559 173.753 76 174 76Z" fill="#121212" stroke="#121212" stroke-width="0.00141"/>
</svg>